M48
;DRILL file {KiCad 4.0.7} date 05/14/18 21:27:04
;FORMAT={-:-/ absolute / inch / decimal}
FMAT,2
INCH,TZ
T1C0.012
T2C0.035
T3C0.039
T4C0.058
T5C0.118
T6C0.126
%
G90
G05
M72
T1
X3.4134Y-2.8307
X3.4134Y-3.1457
X3.4134Y-3.5039
X3.4134Y-3.7992
X3.4173Y-4.2598
X3.4173Y-4.6102
X3.4173Y-4.8701
X3.4449Y-5.1811
X3.4665Y-4.1594
X3.4843Y-2.7047
X3.4961Y-3.9331
X3.498Y-4.4075
X3.5098Y-4.6417
X3.5236Y-4.8307
X3.6575Y-3.7795
X3.7598Y-2.7047
X3.7638Y-5.185
X3.7766Y-3.8652
X3.7776Y-4.2303
X3.7795Y-4.0305
X3.7795Y-4.7028
X3.8051Y-4.4823
X3.8238Y-3.1201
X3.8238Y-3.1516
X3.8268Y-4.8819
X3.8937Y-4.311
X3.8976Y-4.4094
X3.937Y-4.2638
X3.937Y-4.311
X3.937Y-4.4094
X3.939Y-4.0413
X3.9429Y-3.9902
X3.9823Y-3.3031
X4.002Y-4.6949
X4.0039Y-3.6457
X4.0059Y-4.1004
X4.0157Y-3.7303
X4.0217Y-3.3858
X4.0246Y-4.9035
X4.0335Y-4.5413
X4.0472Y-5.185
X4.0531Y-4.2677
X4.0551Y-3.5315
X4.0551Y-4.6949
X4.064Y-3.0827
X4.0787Y-2.7047
X4.0935Y-3.0945
X4.0955Y-4.9035
X4.1043Y-5.0984
X4.1211Y-3.8711
X4.1299Y-3.5394
X4.1319Y-3.3327
X4.185Y-3.5512
X4.1988Y-3.4154
X4.2126Y-3.7303
X4.2146Y-3.874
X4.2244Y-4.6299
X4.2244Y-4.7618
X4.2608Y-4.0315
X4.2618Y-3.9665
X4.2687Y-3.1634
X4.2697Y-4.5433
X4.3189Y-4.0886
X4.3209Y-4.0472
X4.3366Y-3.439
X4.3386Y-4.94
X4.3504Y-5.0945
X4.3819Y-4.1752
X4.3878Y-4.0748
X4.4016Y-2.7087
X4.4154Y-4.2756
X4.4252Y-4.5433
X4.4508Y-4.0295
X4.4587Y-4.1516
X4.4606Y-4.0827
X4.4685Y-5.185
X4.4862Y-3.9469
X4.4882Y-3.8228
X4.4921Y-4.1988
X4.497Y-4.373
X4.5226Y-4.373
X4.5512Y-4.5394
X4.5551Y-3.6752
X4.5906Y-3.2441
X4.6142Y-3.8386
X4.6142Y-4.2362
X4.624Y-4.1732
X4.628Y-3.9508
X4.6457Y-2.7087
X4.6457Y-4.3898
X4.6693Y-3.6752
X4.7343Y-4.2106
X4.7441Y-4.0945
X4.7657Y-3.9902
X4.7756Y-3.6339
X4.7835Y-4.2106
X4.7854Y-4.1614
X4.7992Y-3.9547
X4.8228Y-4.0157
X4.8691Y-3.2923
X4.9055Y-3.8642
X4.9094Y-3.7657
X4.9213Y-4.0157
X4.9311Y-3.8012
X4.9803Y-2.7087
X5.0354Y-5.185
X5.0394Y-4.0157
X5.0591Y-4.0945
X5.0591Y-4.1732
X5.0591Y-4.2323
X5.1004Y-3.2943
X5.1486Y-4.4026
X5.1949Y-3.6772
X5.2136Y-4.314
X5.2205Y-3.8071
X5.2244Y-4.6063
X5.249Y-3.9252
X5.2894Y-3.3642
X5.2913Y-3.9459
X5.2972Y-3.5472
X5.3159Y-4.4222
X5.3169Y-3.6299
X5.3465Y-2.7087
X5.3593Y-3.1201
X5.3593Y-3.1565
X5.3593Y-4.0177
X5.374Y-4.3504
X5.378Y-3.8996
X5.4183Y-3.7657
X5.4213Y-3.5453
X5.4459Y-4.0197
X5.4577Y-4.2982
X5.4823Y-3.4862
X5.4872Y-4.3888
X5.4921Y-2.9724
X5.4921Y-3.1201
X5.5197Y-4.0906
X5.5285Y-3.4862
X5.5384Y-3.8278
X5.5413Y-3.1988
X5.5413Y-3.2972
X5.5669Y-4.0866
X5.5669Y-5.185
X5.5679Y-3.4852
X5.5709Y-4.311
X5.5709Y-4.3898
X5.6053Y-4.4606
X5.6201Y-3.5433
X5.6624Y-3.6909
X5.6624Y-3.7303
X5.6732Y-3.5453
X5.689Y-2.7087
X5.7057Y-3.6909
X5.7057Y-3.7303
X5.7579Y-3.4941
X5.7579Y-4.311
X5.7579Y-4.3898
X5.815Y-4.0531
X5.8533Y-3.8612
X5.8563Y-3.4941
X5.9016Y-2.7087
X5.9163Y-3.4961
X5.9803Y-3.4478
X6.0069Y-3.4291
X6.0256Y-3.689
X6.06Y-3.5374
X6.0807Y-3.5049
X6.0886Y-4.4783
X6.0906Y-4.3209
X6.0925Y-4.0846
X6.1378Y-2.7087
X6.1437Y-3.6614
X6.1575Y-5.185
X6.1693Y-4.6693
X6.1693Y-4.6693
X6.1722Y-4.1368
X6.1742Y-4.2805
X6.2136Y-4.4675
X6.2953Y-4.6594
X6.3041Y-4.1654
X6.3179Y-4.3799
X6.3228Y-3.3583
X6.3228Y-3.9094
X6.3661Y-3.5413
X6.374Y-3.8327
X6.3819Y-2.7087
X6.3967Y-4.5148
X6.4035Y-4.6535
X6.4213Y-4.8189
X6.4409Y-4.7067
X6.4695Y-4.0374
X6.502Y-4.6634
X6.5118Y-4.3346
X6.5138Y-4.937
X6.5236Y-4.4724
X6.5709Y-4.7579
X6.5709Y-4.815
X6.5886Y-4.937
X6.5896Y-4.5837
X6.6053Y-4.1762
X6.622Y-5.002
X6.626Y-4.0669
X6.6437Y-4.4764
X6.6437Y-4.8169
X6.6476Y-4.7579
X6.6575Y-2.7087
X6.6732Y-5.185
X6.7106Y-3.9665
X6.7461Y-4.8406
X6.7598Y-3.3228
X6.7657Y-4.6969
X6.8412Y-3.7005
X6.8425Y-3.937
X6.9016Y-4.7992
X6.9222Y-3.7825
X6.9803Y-5.185
X6.9882Y-3.9173
X6.998Y-4.0157
X7.0118Y-2.7165
X7.0709Y-4.2697
X7.0965Y-3.2382
X7.1083Y-4.815
X7.1102Y-4.6378
X7.2165Y-2.7126
X7.2402Y-5.185
X7.2598Y-3.4291
X7.2598Y-4.374
X7.2598Y-4.5945
X7.2598Y-4.8425
X7.2598Y-5.0118
X7.2638Y-2.9094
X7.2638Y-3.1693
X7.2638Y-3.9764
X7.2638Y-4.1299
X7.2677Y-3.6929
T2
X3.9754Y-2.9134
X4.1486Y-2.9134
T3
X4.5522Y-3.0185
X4.5522Y-3.1366
X4.6703Y-3.0185
X4.6703Y-3.1366
X4.6801Y-4.7571
X4.6801Y-4.8752
X4.7884Y-3.0185
X4.7884Y-3.1366
X4.7982Y-4.7571
X4.7982Y-4.8752
X5.1722Y-3.0185
X5.1722Y-3.1366
X5.1722Y-4.7571
X5.1722Y-4.8752
X5.2904Y-3.0185
X5.2904Y-3.1366
X5.2904Y-4.7571
X5.2904Y-4.8752
X5.6644Y-3.0185
X5.6644Y-3.1366
X5.6644Y-4.7571
X5.6644Y-4.8752
X5.7825Y-3.0185
X5.7825Y-3.1366
X5.7825Y-4.7571
X5.7825Y-4.8752
X6.1565Y-3.0185
X6.1565Y-3.1366
X6.1565Y-4.7571
X6.1565Y-4.8752
X6.2411Y-3.4626
X6.2411Y-3.5626
X6.2411Y-3.6626
X6.2411Y-3.7626
X6.2411Y-3.8626
X6.2411Y-3.9626
X6.2746Y-3.0185
X6.2746Y-3.1366
X6.2746Y-4.7571
X6.2746Y-4.8752
X6.8378Y-4.3543
X6.8378Y-4.4724
X6.8378Y-4.5906
X6.9559Y-4.3543
X6.9559Y-4.4724
X6.9559Y-4.5906
T4
X6.6181Y-2.937
X6.815Y-2.937
T5
X4.6703Y-2.8484
X4.7392Y-5.0453
X5.2313Y-2.8484
X5.2313Y-5.0453
X5.7234Y-2.8484
X5.7234Y-5.0453
X6.2156Y-2.8484
X6.2156Y-5.0453
X7.126Y-4.4724
T6
X3.5679Y-2.8642
X3.5679Y-5.0295
X7.1112Y-2.8642
X7.1112Y-5.0295
T0
M30
