G04 #@! TF.FileFunction,Soldermask,Bot*
%FSLAX46Y46*%
G04 Gerber Fmt 4.6, Leading zero omitted, Abs format (unit mm)*
G04 Created by KiCad (PCBNEW 4.0.7) date 05/14/18 21:23:51*
%MOMM*%
%LPD*%
G01*
G04 APERTURE LIST*
%ADD10C,0.100000*%
%ADD11R,1.700000X1.700000*%
%ADD12O,1.700000X1.700000*%
%ADD13C,3.200000*%
%ADD14C,0.909320*%
%ADD15R,2.400000X2.400000*%
%ADD16C,2.400000*%
%ADD17C,3.000000*%
%ADD18C,1.500000*%
G04 APERTURE END LIST*
D10*
X85625000Y-132750000D02*
X85625000Y-67750000D01*
X185625000Y-132750000D02*
X85625000Y-132750000D01*
X185625000Y-67750000D02*
X185625000Y-132750000D01*
X85625000Y-67750000D02*
X185625000Y-67750000D01*
D11*
X158525000Y-87950000D03*
D12*
X158525000Y-90490000D03*
X158525000Y-93030000D03*
X158525000Y-95570000D03*
X158525000Y-98110000D03*
X158525000Y-100650000D03*
D13*
X90625000Y-127750000D03*
X180625000Y-127750000D03*
X180625000Y-72750000D03*
X90625000Y-72750000D03*
D14*
X105375000Y-74000000D03*
X100975720Y-74000000D03*
D15*
X173100000Y-74600000D03*
D16*
X168100000Y-74600000D03*
D17*
X157875000Y-72350000D03*
D18*
X156375000Y-76670000D03*
X159375000Y-76670000D03*
X156375000Y-79670000D03*
X159375000Y-79670000D03*
D17*
X145375000Y-72350000D03*
D18*
X143875000Y-76670000D03*
X146875000Y-76670000D03*
X143875000Y-79670000D03*
X146875000Y-79670000D03*
D17*
X120375000Y-128150000D03*
D18*
X121875000Y-123830000D03*
X118875000Y-123830000D03*
X121875000Y-120830000D03*
X118875000Y-120830000D03*
D17*
X132875000Y-128150000D03*
D18*
X134375000Y-123830000D03*
X131375000Y-123830000D03*
X134375000Y-120830000D03*
X131375000Y-120830000D03*
D17*
X157875000Y-128150000D03*
D18*
X159375000Y-123830000D03*
X156375000Y-123830000D03*
X159375000Y-120830000D03*
X156375000Y-120830000D03*
D17*
X145375000Y-128150000D03*
D18*
X146875000Y-123830000D03*
X143875000Y-123830000D03*
X146875000Y-120830000D03*
X143875000Y-120830000D03*
D17*
X132875000Y-72350000D03*
D18*
X131375000Y-76670000D03*
X134375000Y-76670000D03*
X131375000Y-79670000D03*
X134375000Y-79670000D03*
D17*
X118625000Y-72350000D03*
D18*
X115625000Y-76670000D03*
X118625000Y-76670000D03*
X115625000Y-79670000D03*
X118625000Y-79670000D03*
X121625000Y-79670000D03*
X121625000Y-76670000D03*
D17*
X181000000Y-113600000D03*
D18*
X176680000Y-110600000D03*
X176680000Y-113600000D03*
X173680000Y-110600000D03*
X173680000Y-113600000D03*
X173680000Y-116600000D03*
X176680000Y-116600000D03*
M02*
